# AST/ASF file generated using VICON BodyLanguage
# -----------------------------------------------
:version 1.10
:name VICON
:units
  mass 1.0
  length 0.45
  angle deg
:documentation
   .ast/.asf automatically generated from VICON data using
   VICON BodyBuilder and BodyLanguage model FoxedUp or BRILLIANT.MOD
:root
   order TX TY TZ RX RY RZ
   axis XYZ
   position 0 0 0  
   orientation 0 0 0 
:bonedata
  begin
     id 1 
     name lhipjoint
     direction 0.662698 -0.695252 0.27831 
     length 2.53073 
     axis 0 0 0  XYZ
  end
  begin
     id 2 
     name lfemur
     direction 0.34202 -0.939693 0  
     length 7.16147  
     axis 0 0 20  XYZ
    dof rx ry rz
    limits (-160.0 20.0)
           (-70.0 70.0)
           (-60.0 70.0)
  end
  begin
     id 3 
     name ltibia
     direction 0.34202 -0.939693 0   
     length 7.63967   
     axis 0 0 20   XYZ
    dof rx
    limits (-10.0 170.0)
  end
  begin
     id 4 
     name lfoot
     direction 0.0938457 -0.257721 0.961651   
     length 1.89793   
     axis -90 7.62852e-016 20   XYZ
    dof rx rz
    limits (-45.0 90.0)
           (-70.0 20.0)
  end
  begin
     id 5 
     name ltoes
     direction -0.00116841 -0.0030592 0.999995   
     length 0.955649   
     axis -90 7.62852e-016 20   XYZ
    dof rx
    limits (-90.0 20.0)
  end
  begin
     id 6 
     name rhipjoint
     direction -0.649445 -0.705948 0.282592   
     length 2.49238  
     axis 0 0 0  XYZ 
  end
  begin
     id 7 
     name rfemur
     direction -0.34202 -0.939693 0   
     length 6.90728   
     axis 0 0 -20   XYZ
    dof rx ry rz
    limits (-160.0 20.0)
           (-70.0 70.0)
           (-70.0 60.0)
  end
  begin
     id 8 
     name rtibia
     direction -0.34202 -0.939693 0   
     length 7.72868   
     axis 0 0 -20   XYZ
    dof rx
    limits (-10.0 170.0)
 end
 begin
     id 9 
     name rfoot
     direction -0.0920068 -0.252865 0.963117   
     length 1.97476  
     axis -90 -7.62852e-016 -20   XYZ
    dof rx rz
    limits (-45.0 90.0)
           (-20.0 70.0)
  end
  begin
     id 10 
     name rtoes
     direction 0.000391322 0.00230649 0.999997   
     length 0.992641   
     axis -90 -7.62852e-016 -20   XYZ
    dof rx
    limits (-90.0 20.0)
  end
  begin
     id 11 
     name lowerback
     direction -0.00875327 0.998321 -0.0572635   
     length 2.20024   
     axis 0 0 0   XYZ
    dof rx ry rz
    limits (-20.0 45.0)
           (-30.0 30.0)
           (-30.0 30.0)
  end
  begin
     id 12 
     name upperback
     direction 0.00753931 0.999972 -0.000360425   
     length 2.20538   
     axis 0 0 0   XYZ
    dof rx ry rz
    limits (-20.0 45.0)
           (-30.0 30.0)
           (-30.0 30.0)
  end
  begin
     id 13 
     name thorax
     direction 0.0117767 0.999601 0.0256663   
     length 2.21508   
     axis 0 0 0   XYZ
    dof rx ry rz
    limits (-20.0 45.0)
           (-30.0 30.0)
           (-30.0 30.0)
  end
  begin
     id 14 
     name lowerneck
     direction 0.060228 0.994909 0.0807986   
     length 1.7607   
     axis 0 0 0   XYZ
    dof rx ry rz
    limits (-20.0 45.0)
           (-30.0 30.0)
           (-30.0 30.0)
  end
  begin
     id 15 
     name upperneck
     direction -0.0563647 0.959594 -0.275685   
     length 1.75612   
     axis 0 0 0   XYZ
    dof rx ry rz
    limits (-20.0 45.0)
           (-30.0 30.0)
           (-30.0 30.0)
  end
  begin
     id 16
     name head
     direction -0.0161544 0.99458 -0.102714  
     length 1.79288  
     axis 0 0 0   XYZ
    dof rx ry rz
    limits (-20.0 45.0)
           (-30.0 30.0)
           (-30.0 30.0)
  end
  begin
     id 17 
     name lclavicle
     direction 0.93913 0.332189 -0.087669  
     length 3.52087  
     axis 0 0 0   XYZ
    dof ry rz
    limits (-20.0 10.0)
           (0.0 20.0)
  end
  begin
     id 18 
     name lhumerus
     direction 1 -4.48974e-011 -2.70836e-027   
     length 5.35289   
     axis -180 -30 -90   XYZ
    dof rx ry rz
    limits (-60.0 90.0)
           (-90.0 90.0)
           (-90.0 90.0)
  end
  begin
     id 19
     name lradius
     direction 1 -4.48961e-011 -9.76021e-027   
     length 3.27727   
     axis -180 -30 -90   XYZ
    dof rx
    limits (-10.0 170.0)
  end
  begin
     id 20
     name lwrist
     direction 1 -4.49103e-011 -2.23668e-026   
     length 1.63864   
     axis 1.44924e-014 90 90   XYZ
    dof ry
    limits (-180.0 0.0)
 end
  begin
     id 21 
     name lhand
     direction 1 3.0697e-005 0.000161777   
     length 0.54443   
     axis 2.85318e-014 90 90   XYZ
    dof rx rz
    limits (-90.0 90.0)
           (-45.0 45.0)
  end
  begin
     id 22 
     name lfingers
     direction 1 -4.49027e-011 -8.9447e-026   
     length 0.438912   
     axis 5.70628e-014 90 90   XYZ
    dof rx
    limits (0.0 90.0)
  end
  begin
     id 23
     name lthumb
     direction 0.707058 2.6516e-005 0.707156   
     length 0.630274   
     axis -90 45 -3.53137e-014   XYZ
    dof rx rz
    limits (-45.0 45.0)
           (-45.0 45.0)
  end
  begin
     id 24 
     name rclavicle
     direction -0.95274 0.284984 -0.105215   
     length 3.43401  
     axis 0 0 0   XYZ 
    dof ry rz
    limits (-10.0 20.0)
           (-20.0 0.0)
  end
  begin
     id 25 
     name rhumerus
     direction -0.999999 -0.000575019 -0.00106829  
     length 5.52077   
     axis -180 30 90   XYZ
    dof rx ry rz
    limits (-90.0 60.0)
           (-90.0 90.0)
           (-90.0 90.0)
  end
  begin
     id 26 
     name rradius
     direction -1 -4.4879e-011 -6.35415e-027   
     length 3.32364   
     axis -180 30 90   XYZ
    dof rx
    limits (-10.0 170.0)
  end
  begin
     id 27 
     name rwrist
     direction -1 -4.49048e-011 -9.98542e-027   
     length 1.66182   
     axis 6.32482e-015 -90 -90   XYZ
    dof ry
    limits (-180.0 0.0)
  end
  begin
     id 28
     name rhand
     direction -1 -4.48978e-011 -1.99771e-026   
     length 0.732235   
     axis 1.27479e-014 -90 -90   XYZ
    dof rx rz
    limits (-90.0 90.0)
           (-45.0 45.0)
  end
  begin
     id 29
     name rfingers
     direction -1 -4.49144e-011 -3.99245e-026   
     length 0.590347   
     axis 2.5496e-014 -90 -90   XYZ
    dof rx
    limits (0.0 90.0)
  end
  begin
     id 30
     name rthumb
     direction -0.707107 -6.35121e-011 0.707107   
     length 0.847624   
     axis -90 -45 -2.82974e-014   XYZ
    dof rx rz
    limits (-45.0 45.0)
           (-45.0 45.0)
  end
:hierarchy
  begin
    root lhipjoint rhipjoint lowerback
    lhipjoint lfemur
    lfemur ltibia
    ltibia lfoot
    lfoot ltoes
    rhipjoint rfemur
    rfemur rtibia
    rtibia rfoot
    rfoot rtoes
    lowerback upperback
    upperback thorax
    thorax lowerneck lclavicle rclavicle
    lowerneck upperneck
    upperneck head
    lclavicle lhumerus
    lhumerus lradius
    lradius lwrist
    lwrist lhand lthumb
    lhand lfingers
    rclavicle rhumerus
    rhumerus rradius
    rradius rwrist
    rwrist rhand rthumb
    rhand rfingers
  end

#!OML:ASF G:\Work\Work\Patient Classification 1\Elijah\terrain1\Elijah.ASF
:FULLY-SPECIFIED
:DEGREES
2852
root 3.1938 18.0833 -9.34212 910.101 -66.2723 167.602
lowerback 9.38845 1.77721 -5.20204
upperback 3.35268 1.73572 -0.347941
thorax -1.92057 0.786786 2.37409
lowerneck -8.14319 15.395 18.389
upperneck 17.1308 22.5404 -20.4982
head 11.5457 9.9783 -6.85777
rclavicle 2.37051e-014 -1.90833e-014
rhumerus -45.4695 3.07762 -83.8364
rradius 36.786
rwrist -3.74661
rhand -11.1962 19.9146
rfingers 7.12502
rthumb 14.8315 -9.53463
lclavicle 2.37051e-014 -1.90833e-014
lhumerus -51.9097 8.41199 76.9303
lradius 58.6032
lwrist 25.4415
lhand -28.1799 30.5057
lfingers 7.12502
lthumb -1.55968 60.4798
rfemur -68.3857 -6.03507 24.7933
rtibia 86.4105
rfoot -16.2323 -6.31715
rtoes -10.4348
lfemur -6.76198 -15.7092 -34.0336
ltibia 34.4272
lfoot -7.73268 -31.7707
ltoes -22.4618
2853
root 3.1483 18.0718 -9.38852 909.563 -66.8264 168.063
lowerback 9.51545 1.70041 -4.87117
upperback 3.43103 1.65388 -0.370733
thorax -1.89379 0.743583 2.17253
lowerneck -8.26764 15.3449 18.4226
upperneck 17.2479 22.3767 -20.1162
head 11.5187 9.9305 -6.74997
rclavicle -1.98785e-015 7.95139e-016
rhumerus -45.3803 2.99465 -83.9459
rradius 37.0372
rwrist -3.38112
rhand -11.1029 20.0908
rfingers 7.12502
rthumb 14.9214 -9.35171
lclavicle -1.98785e-015 7.95139e-016
lhumerus -51.9611 8.28081 77.0088
lradius 58.6668
lwrist 25.3216
lhand -29.0593 30.7819
lfingers 7.12502
lthumb -2.40896 60.7481
rfemur -67.6706 -6.19298 25.276
rtibia 85.0413
rfoot -16.245 -7.72114
rtoes -10.454
lfemur -6.35165 -16.3511 -33.7221
ltibia 34.6761
lfoot -7.68683 -31.4521
ltoes -23.2444
2854
root 3.10678 18.0817 -9.41638 910.694 -67.2268 167.079
lowerback 9.40865 1.52603 -5.11993
upperback 3.39241 1.40492 -0.460293
thorax -1.8596 0.619754 2.24917
lowerneck -8.21872 15.3636 18.4066
upperneck 17.2694 22.3942 -20.0273
head 11.5048 9.94791 -6.71347
rclavicle 6.65929e-015 -1.86858e-014
rhumerus -45.25 3.20735 -84.0312
rradius 37.2795
rwrist -2.75242
rhand -11.4533 20.1358
rfingers 7.12502
rthumb 14.5838 -9.33145
lclavicle 6.65929e-015 -1.86858e-014
lhumerus -52.1816 8.08811 77.3012
lradius 58.8471
lwrist 25.1624
lhand -25.0599 29.5193
lfingers 7.12502
lthumb 1.45376 59.4941
rfemur -67.4287 -6.4792 25.0251
rtibia 83.7642
rfoot -16.3799 -8.45299
rtoes -10.2147
lfemur -6.61308 -15.4045 -34.1735
ltibia 34.9065
lfoot -8.75416 -31.3215
ltoes -25.0438
2855
root 3.0656 18.0759 -9.4757 911.49 -67.3742 166.51
lowerback 9.12909 1.70799 -5.38982
upperback 3.32915 1.63542 -0.67035
thorax -1.78964 0.734781 2.16176
lowerneck -8.25474 15.1562 18.9015
upperneck 17.3703 22.0244 -19.9926
head 11.525 9.81588 -6.85971
rclavicle -3.45388e-014 -7.7526e-015
rhumerus -45.3234 2.99685 -84.3965
rradius 37.5797
rwrist -3.15386
rhand -11.8115 20.0888
rfingers 7.12502
rthumb 14.2386 -9.40311
lclavicle -3.45388e-014 -7.7526e-015
lhumerus -52.248 7.10668 77.7087
lradius 59.147
lwrist 25.1445
lhand -23.0494 29.0349
lfingers 7.12502
lthumb 3.3954 58.9876
rfemur -67.3086 -6.21535 24.9202
rtibia 82.6059
rfoot -16.347 -8.9893
rtoes -8.76173
lfemur -6.88845 -15.194 -34.1567
ltibia 35.2318
lfoot -8.48865 -31.2007
ltoes -26.6268
2856
root 3.01857 18.059 -9.53978 911.978 -67.695 166.13
lowerback 8.97592 1.88095 -5.54754
upperback 3.28251 1.85852 -0.796915
thorax -1.77121 0.846802 2.09729
lowerneck -8.22595 14.8754 18.9977
upperneck 17.3611 21.5452 -19.746
head 11.3808 9.63434 -6.89324
rclavicle 4.20927e-014 -1.47101e-014
rhumerus -45.4299 2.69953 -84.5073
rradius 37.8842
rwrist -3.44413
rhand -14.4235 19.7332
rfingers 7.12502
rthumb 11.7207 -9.91887
lclavicle 4.20927e-014 -1.47101e-014
lhumerus -52.1766 6.75409 77.8674
lradius 59.1756
lwrist 24.8376
lhand -22.8004 29.3241
lfingers 7.12502
lthumb 3.63583 59.2728
rfemur -67.0407 -6.12053 24.9268
rtibia 81.5727
rfoot -16.1555 -9.59977
rtoes -7.77707
lfemur -6.87204 -15.9335 -33.9925
ltibia 35.617
lfoot -9.25086 -31.7716
ltoes -23.8342
2857
root 2.97057 18.0639 -9.57502 913.257 -68.3136 164.91
lowerback 8.86123 1.65458 -6.05868
upperback 3.32903 1.52642 -0.714566
thorax -1.64705 0.674851 2.50792
lowerneck -8.05573 14.8644 18.5302
upperneck 17.1176 21.5216 -19.4824
head 11.153 9.636 -6.73362
rclavicle 4.82053e-015 7.95139e-015
rhumerus -45.1325 3.21526 -84.35
rradius 38.0714
rwrist -3.1315
rhand -13.7606 19.6481
rfingers 7.12502
rthumb 12.36 -9.96653
lclavicle 4.82053e-015 7.95139e-015
lhumerus -52.0995 7.49865 78.0055
lradius 59.051
lwrist 24.5079
lhand -23.5223 29.7337
lfingers 7.12502
lthumb 2.93868 59.6932
rfemur -66.6436 -6.64606 24.6023
rtibia 80.5621
rfoot -15.9693 -9.89629
rtoes -8.21883
lfemur -7.01528 -15.6139 -34.3793
ltibia 35.9672
lfoot -8.97392 -31.5635
ltoes -26.3526
2858
root 2.92502 18.0647 -9.61057 913.85 -68.7731 164.473
lowerback 8.9534 1.66894 -5.7898
upperback 3.20493 1.549 -1.04051
thorax -1.81437 0.695136 2.01355
lowerneck -8.09277 14.7126 19.2035
upperneck 17.2913 21.1665 -19.2204
head 11.1901 9.53943 -6.8149
rclavicle -2.77305e-014 1.61016e-014
rhumerus -45.2081 2.4693 -84.5386
rradius 38.2622
rwrist -2.6143
rhand -12.3419 20.0918
rfingers 7.12502
rthumb 13.7275 -9.43542
lclavicle -2.77305e-014 1.61016e-014
lhumerus -52.0684 6.75414 78.1258
lradius 59.1079
lwrist 24.5775
lhand -23.3435 29.7651
lfingers 7.12502
lthumb 3.11136 59.7222
rfemur -66.1897 -6.84908 24.5551
rtibia 79.603
rfoot -15.9288 -9.8285
rtoes -6.95451
lfemur -7.16727 -15.2053 -34.3373
ltibia 36.2438
lfoot -9.05913 -31.9049
ltoes -26.9584
2859
root 2.87521 18.0551 -9.64447 914.211 -69.018 164.383
lowerback 8.76356 1.82139 -5.6011
upperback 3.15676 1.7793 -1.16261
thorax -1.76869 0.811888 1.76055
lowerneck -8.22271 14.4793 19.277
upperneck 17.381 20.7264 -18.849
head 11.105 9.37034 -6.77815
rclavicle 8.3738e-015 1.49089e-014
rhumerus -45.2628 2.00768 -84.5639
rradius 38.5248
rwrist -2.44742
rhand -11.9436 20.4317
rfingers 7.12502
rthumb 14.1114 -9.0691
lclavicle 8.3738e-015 1.49089e-014
lhumerus -51.8365 6.20192 78.5877
lradius 59.0892
lwrist 24.19
lhand -21.6625 29.4523
lfingers 7.12502
lthumb 4.73467 59.3794
rfemur -65.8844 -6.7819 24.6378
rtibia 78.7014
rfoot -15.7029 -10.076
rtoes -6.15981
lfemur -7.44829 -15.0643 -34.1319
ltibia 36.6661
lfoot -9.25701 -32.2437
ltoes -26.7624
2860
root 2.82255 18.0451 -9.6685 915.122 -69.3531 163.693
lowerback 8.68829 1.78723 -5.40361
upperback 3.08845 1.74927 -1.36806
thorax -1.78444 0.8002 1.44177
lowerneck -8.10284 14.3144 19.2433
upperneck 17.1567 20.4359 -18.6615
head 10.9051 9.2692 -6.76795
rclavicle -3.53091e-014 1.96797e-014
rhumerus -45.2236 2.14856 -84.9059
rradius 38.6724
rwrist -2.50411
rhand -12.224 20.5405
rfingers 7.12502
rthumb 13.8411 -8.97893
lclavicle -3.53091e-014 1.96797e-014
lhumerus -51.6361 6.10792 78.7566
lradius 59.0079
lwrist 23.5599
lhand -20.931 29.3776
lfingers 7.12502
lthumb 5.44101 59.2877
rfemur -65.6419 -7.01348 24.5139
rtibia 77.9385
rfoot -15.369 -10.3816
rtoes -6.52898
lfemur -7.62647 -15.5012 -34.1771
ltibia 37.0021
lfoot -9.06836 -32.6298
ltoes -25.8331
2861
root 2.7749 18.0598 -9.74691 914.355 -69.6799 164.588
lowerback 8.64235 1.78284 -5.40526
upperback 3.06731 1.75293 -1.24692
thorax -1.78488 0.803872 1.56844
lowerneck -7.8869 14.2124 19.3532
upperneck 16.9105 20.2681 -18.6481
head 10.7487 9.22328 -6.82266
rclavicle -3.30728e-014 -9.34288e-015
rhumerus -45.1884 2.65839 -85.3223
rradius 38.7562
rwrist -2.81421
rhand -12.7181 20.7148
rfingers 7.12502
rthumb 13.3649 -8.83657
lclavicle -3.30728e-014 -9.34288e-015
lhumerus -51.5172 6.11227 78.8881
lradius 58.9582
lwrist 23.0525
lhand -21.6223 29.3566
lfingers 7.12502
lthumb 4.77345 59.2828
rfemur -64.8391 -6.66972 25.0178
rtibia 77.0619
rfoot -15.3669 -10.8639
rtoes -5.54114
lfemur -7.76005 -15.0442 -33.6017
ltibia 37.3308
lfoot -8.87003 -32.9034
ltoes -26.8098
2862
root 2.71853 18.0537 -9.79906 914.5 -69.936 164.486
lowerback 8.57513 1.75153 -5.47175
upperback 3.15176 1.71348 -1.195
thorax -1.66073 0.778875 1.66637
lowerneck -8.17524 14.1935 18.6115
upperneck 16.9837 20.1218 -17.7827
head 10.5942 9.16409 -6.40562
rclavicle 2.29845e-014 -1.39149e-015
rhumerus -45.0731 3.48854 -85.5485
rradius 39.0292
rwrist -3.45264
rhand -13.0456 20.8169
rfingers 7.12502
rthumb 13.0492 -8.7549
lclavicle 2.29845e-014 -1.39149e-015
lhumerus -51.2104 6.12784 79.2531
lradius 58.8844
lwrist 22.4643
lhand -21.8038 28.8218
lfingers 7.12502
lthumb 4.59825 58.7519
rfemur -64.2356 -6.68131 25.2138
rtibia 76.4171
rfoot -15.0485 -11.3836
rtoes -5.14132
lfemur -7.72788 -14.8591 -33.4666
ltibia 37.5871
lfoot -8.82664 -33.2608
ltoes -26.7947
